<?xml version="1.0" standalone="no"?><svg xmlns="http://www.w3.org/2000/svg" viewBox="0 0 1440 320"><path fill="#f6f1ff" fill-opacity="1" d="M0,32L16,37.3C32,43,64,53,96,80C128,107,160,149,192,170.7C224,192,256,192,288,208C320,224,352,256,384,240C416,224,448,160,480,122.7C512,85,544,75,576,69.3C608,64,640,64,672,106.7C704,149,736,235,768,261.3C800,288,832,256,864,218.7C896,181,928,139,960,149.3C992,160,1024,224,1056,218.7C1088,213,1120,139,1152,101.3C1184,64,1216,64,1248,101.3C1280,139,1312,213,1344,224C1376,235,1408,181,1424,154.7L1440,128L1440,320L1424,320C1408,320,1376,320,1344,320C1312,320,1280,320,1248,320C1216,320,1184,320,1152,320C1120,320,1088,320,1056,320C1024,320,992,320,960,320C928,320,896,320,864,320C832,320,800,320,768,320C736,320,704,320,672,320C640,320,608,320,576,320C544,320,512,320,480,320C448,320,416,320,384,320C352,320,320,320,288,320C256,320,224,320,192,320C160,320,128,320,96,320C64,320,32,320,16,320L0,320Z"></path></svg>