<?xml version="1.0" standalone="no"?><svg xmlns="http://www.w3.org/2000/svg" viewBox="0 0 1440 320"><path fill="#f6f1ff" fill-opacity="1" d="M0,224L21.8,224C43.6,224,87,224,131,202.7C174.5,181,218,139,262,138.7C305.5,139,349,181,393,176C436.4,171,480,117,524,96C567.3,75,611,85,655,117.3C698.2,149,742,203,785,224C829.1,245,873,235,916,218.7C960,203,1004,181,1047,181.3C1090.9,181,1135,203,1178,197.3C1221.8,192,1265,160,1309,160C1352.7,160,1396,192,1418,208L1440,224L1440,320L1418.2,320C1396.4,320,1353,320,1309,320C1265.5,320,1222,320,1178,320C1134.5,320,1091,320,1047,320C1003.6,320,960,320,916,320C872.7,320,829,320,785,320C741.8,320,698,320,655,320C610.9,320,567,320,524,320C480,320,436,320,393,320C349.1,320,305,320,262,320C218.2,320,175,320,131,320C87.3,320,44,320,22,320L0,320Z"></path></svg>