<?xml version="1.0" standalone="no"?><svg xmlns="http://www.w3.org/2000/svg" viewBox="0 0 1440 320"><path fill="#f6f1ff" fill-opacity="1" d="M0,32L16,37.3C32,43,64,53,96,80C128,107,160,149,192,170.7C224,192,256,192,288,208C320,224,352,256,384,240C416,224,448,160,480,122.7C512,85,544,75,576,69.3C608,64,640,64,672,106.7C704,149,736,235,768,261.3C800,288,832,256,864,218.7C896,181,928,139,960,149.3C992,160,1024,224,1056,218.7C1088,213,1120,139,1152,101.3C1184,64,1216,64,1248,101.3C1280,139,1312,213,1344,224C1376,235,1408,181,1424,154.7L1440,128L1440,0L1424,0C1408,0,1376,0,1344,0C1312,0,1280,0,1248,0C1216,0,1184,0,1152,0C1120,0,1088,0,1056,0C1024,0,992,0,960,0C928,0,896,0,864,0C832,0,800,0,768,0C736,0,704,0,672,0C640,0,608,0,576,0C544,0,512,0,480,0C448,0,416,0,384,0C352,0,320,0,288,0C256,0,224,0,192,0C160,0,128,0,96,0C64,0,32,0,16,0L0,0Z"></path></svg>