<?xml version="1.0" standalone="no"?><svg xmlns="http://www.w3.org/2000/svg" viewBox="0 0 1440 320"><path fill="#f6f1ff" fill-opacity="1" d="M0,32L24,74.7C48,117,96,203,144,245.3C192,288,240,288,288,272C336,256,384,224,432,186.7C480,149,528,107,576,106.7C624,107,672,149,720,170.7C768,192,816,192,864,197.3C912,203,960,213,1008,202.7C1056,192,1104,160,1152,165.3C1200,171,1248,213,1296,229.3C1344,245,1392,235,1416,229.3L1440,224L1440,320L1416,320C1392,320,1344,320,1296,320C1248,320,1200,320,1152,320C1104,320,1056,320,1008,320C960,320,912,320,864,320C816,320,768,320,720,320C672,320,624,320,576,320C528,320,480,320,432,320C384,320,336,320,288,320C240,320,192,320,144,320C96,320,48,320,24,320L0,320Z"></path></svg>