<?xml version="1.0" standalone="no"?><svg xmlns="http://www.w3.org/2000/svg" viewBox="0 0 1440 320"><path fill="#f6f1ff" fill-opacity="1" d="M0,64L24,101.3C48,139,96,213,144,240C192,267,240,245,288,224C336,203,384,181,432,186.7C480,192,528,224,576,234.7C624,245,672,235,720,224C768,213,816,203,864,176C912,149,960,107,1008,128C1056,149,1104,235,1152,250.7C1200,267,1248,213,1296,202.7C1344,192,1392,224,1416,240L1440,256L1440,320L1416,320C1392,320,1344,320,1296,320C1248,320,1200,320,1152,320C1104,320,1056,320,1008,320C960,320,912,320,864,320C816,320,768,320,720,320C672,320,624,320,576,320C528,320,480,320,432,320C384,320,336,320,288,320C240,320,192,320,144,320C96,320,48,320,24,320L0,320Z"></path></svg>