<?xml version="1.0" standalone="no"?><svg xmlns="http://www.w3.org/2000/svg" viewBox="0 0 1440 320"><path fill="#f6f1ff" fill-opacity="1" d="M0,256L26.7,224C53.3,192,107,128,160,128C213.3,128,267,192,320,181.3C373.3,171,427,85,480,85.3C533.3,85,587,171,640,218.7C693.3,267,747,277,800,250.7C853.3,224,907,160,960,112C1013.3,64,1067,32,1120,32C1173.3,32,1227,64,1280,69.3C1333.3,75,1387,53,1413,42.7L1440,32L1440,320L1413.3,320C1386.7,320,1333,320,1280,320C1226.7,320,1173,320,1120,320C1066.7,320,1013,320,960,320C906.7,320,853,320,800,320C746.7,320,693,320,640,320C586.7,320,533,320,480,320C426.7,320,373,320,320,320C266.7,320,213,320,160,320C106.7,320,53,320,27,320L0,320Z"></path></svg>