<?xml version="1.0" standalone="no"?><svg xmlns="http://www.w3.org/2000/svg" viewBox="0 0 1440 320"><path fill="#f6f1ff" fill-opacity="1" d="M0,64L24,101.3C48,139,96,213,144,240C192,267,240,245,288,224C336,203,384,181,432,186.7C480,192,528,224,576,234.7C624,245,672,235,720,224C768,213,816,203,864,176C912,149,960,107,1008,128C1056,149,1104,235,1152,250.7C1200,267,1248,213,1296,202.7C1344,192,1392,224,1416,240L1440,256L1440,0L1416,0C1392,0,1344,0,1296,0C1248,0,1200,0,1152,0C1104,0,1056,0,1008,0C960,0,912,0,864,0C816,0,768,0,720,0C672,0,624,0,576,0C528,0,480,0,432,0C384,0,336,0,288,0C240,0,192,0,144,0C96,0,48,0,24,0L0,0Z"></path></svg>